grf
version=1
nRows=12
nColumns=37
inDegrees=no
endheader
time	ground_force_1_vx	ground_force_1_vy	ground_force_1_vz	ground_force_1_px	ground_force_1_py	ground_force_1_pz	ground_moment_1_mx	ground_moment_1_my	ground_moment_1_mz	ground_force_2_vx	ground_force_2_vy	ground_force_2_vz	ground_force_2_px	ground_force_2_py	ground_force_2_pz	ground_moment_2_mx	ground_moment_2_my	ground_moment_2_mz	ground_force_3_vx	ground_force_3_vy	ground_force_3_vz	ground_force_3_px	ground_force_3_py	ground_force_3_pz	ground_moment_3_mx	ground_moment_3_my	ground_moment_3_mz	ground_force_4_vx	ground_force_4_vy	ground_force_4_vz	ground_force_4_px	ground_force_4_py	ground_force_4_pz	ground_moment_4_mx	ground_moment_4_my	ground_moment_4_mz
      3.42000000	      0.00000000	     -0.00000000	      0.00000000	      0.00000000	      0.00000000	      0.00000000	      0.00000000	      0.00000000	      0.00000000	     -8.22030830	     -6.36635876	   -331.93792725	   -273.75692984	  -1120.45583713	      0.00000000	      0.00000000	      0.00000000	   5882.14012883	     10.85439913	      4.60534525	   -381.59777832	   -271.49548582	   -698.63528620	      0.00000000	      0.00000000	     -0.00000000	  -2736.41630782	      0.00000000	     -0.00000000	      0.00000000	      0.00000000	      0.00000000	      0.00000000	      0.00000000	      0.00000000	      0.00000000
      3.43000000	      0.00000000	     -0.00000000	      0.00000000	      0.00000000	      0.00000000	      0.00000000	      0.00000000	      0.00000000	      0.00000000	     -8.51300430	     -6.45536089	   -333.40185547	   -274.23525535	  -1121.19567755	      0.00000000	      0.00000000	      0.00000000	   5939.14104688	     11.65298793	      5.17325395	   -380.02609253	   -271.66667238	   -700.58380365	      0.00000000	      0.00000000	     -0.00000000	  -2677.72658272	      0.00000000	     -0.00000000	      0.00000000	      0.00000000	      0.00000000	      0.00000000	      0.00000000	      0.00000000	      0.00000000
      3.44000000	      0.00000000	     -0.00000000	      0.00000000	      0.00000000	      0.00000000	      0.00000000	      0.00000000	      0.00000000	      0.00000000	     -8.54527855	     -5.93391085	   -332.54562378	   -274.56814246	  -1119.90057764	      0.00000000	      0.00000000	      0.00000000	   5905.63122388	     12.47047568	      5.49473320	   -377.83410645	   -271.93409175	   -700.03923912	      0.00000000	      0.00000000	     -0.00000000	  -2596.82768832	      0.00000000	     -0.00000000	      0.00000000	      0.00000000	      0.00000000	      0.00000000	      0.00000000	      0.00000000	      0.00000000
      3.45000000	      0.00000000	     -0.00000000	      0.00000000	      0.00000000	      0.00000000	      0.00000000	      0.00000000	      0.00000000	      0.00000000	     -8.70490360	     -5.59126711	   -331.93469238	   -275.45463552	  -1119.98145306	      0.00000000	      0.00000000	      0.00000000	   5785.20156227	     12.54051260	      5.88540206	   -376.66058350	   -272.54377347	   -699.57974523	      0.00000000	      0.00000000	     -0.00000000	  -2623.91713351	      0.00000000	     -0.00000000	      0.00000000	      0.00000000	      0.00000000	      0.00000000	      0.00000000	      0.00000000	      0.00000000
      3.46000000	      0.00000000	     -0.00000000	      0.00000000	      0.00000000	      0.00000000	      0.00000000	      0.00000000	      0.00000000	      0.00000000	     -8.09935760	     -5.27747583	   -332.41677856	   -275.26252321	  -1121.46693926	      0.00000000	      0.00000000	      0.00000000	   5912.05238391	     12.57818945	      6.34049973	   -375.74124146	   -272.68329336	   -700.25976546	      0.00000000	      0.00000000	     -0.00000000	  -2673.30799989	      0.00000000	     -0.00000000	      0.00000000	      0.00000000	      0.00000000	      0.00000000	      0.00000000	      0.00000000	      0.00000000
      3.47000000	      0.00000000	     -0.00000000	      0.00000000	      0.00000000	      0.00000000	      0.00000000	      0.00000000	      0.00000000	      0.00000000	     -8.66773510	     -5.77036524	   -332.17660522	   -274.67314043	  -1120.99276218	      0.00000000	      0.00000000	      0.00000000	   5800.47461299	     13.02181870	      6.12675982	   -376.67932129	   -272.84857736	   -700.36110858	      0.00000000	      0.00000000	     -0.00000000	  -2625.69806683	      0.00000000	     -0.00000000	      0.00000000	      0.00000000	      0.00000000	      0.00000000	      0.00000000	      0.00000000	      0.00000000
      3.48000000	      0.00000000	     -0.00000000	      0.00000000	      0.00000000	      0.00000000	      0.00000000	      0.00000000	      0.00000000	      0.00000000	     -8.92105103	     -5.97173691	   -330.35479736	   -275.17499773	  -1120.53506981	      0.00000000	      0.00000000	      0.00000000	   5891.05194924	     12.84876776	      5.52722103	   -376.03631592	   -273.00754817	   -700.88495035	      0.00000000	      0.00000000	     -0.00000000	  -2601.95010696	      0.00000000	     -0.00000000	      0.00000000	      0.00000000	      0.00000000	      0.00000000	      0.00000000	      0.00000000	      0.00000000
      3.49000000	      0.00000000	     -0.00000000	      0.00000000	      0.00000000	      0.00000000	      0.00000000	      0.00000000	      0.00000000	      0.00000000	     -8.86903763	     -6.90020514	   -327.13327026	   -275.31936621	  -1118.62280266	      0.00000000	      0.00000000	      0.00000000	   5808.70700471	     13.14773993	      5.98741130	   -378.33438110	   -272.92242530	   -700.20666076	      0.00000000	      0.00000000	     -0.00000000	  -2669.64020758	      0.00000000	     -0.00000000	      0.00000000	      0.00000000	      0.00000000	      0.00000000	      0.00000000	      0.00000000	      0.00000000
      3.50000000	      0.00000000	     -0.00000000	      0.00000000	      0.00000000	      0.00000000	      0.00000000	      0.00000000	      0.00000000	      0.00000000	     -8.63489628	     -7.24147224	   -330.12295532	   -276.75007786	  -1120.19004621	      0.00000000	      0.00000000	      0.00000000	   5815.84170175	     13.60605675	      6.14212680	   -378.62573242	   -272.97143957	   -700.92876341	      0.00000000	      0.00000000	     -0.00000000	  -2696.31868690	      0.00000000	     -0.00000000	      0.00000000	      0.00000000	      0.00000000	      0.00000000	      0.00000000	      0.00000000	      0.00000000
      3.51000000	      0.00000000	     -0.00000000	      0.00000000	      0.00000000	      0.00000000	      0.00000000	      0.00000000	      0.00000000	      0.00000000	     -8.47808266	     -7.82503271	   -329.17593384	   -276.01039602	  -1118.48622960	      0.00000000	      0.00000000	      0.00000000	   5873.53099114	     13.38023616	      5.57599523	   -380.57525635	   -273.59338171	   -700.73394053	      0.00000000	      0.00000000	     -0.00000000	  -2619.73176798	      0.00000000	     -0.00000000	      0.00000000	      0.00000000	      0.00000000	      0.00000000	      0.00000000	      0.00000000	      0.00000000
      3.52000000	      0.00000000	     -0.00000000	      0.00000000	      0.00000000	      0.00000000	      0.00000000	      0.00000000	      0.00000000	      0.00000000	     -9.08380508	     -7.48967028	   -329.87005615	   -276.20962178	  -1117.56215133	      0.00000000	      0.00000000	      0.00000000	   5943.98383604	     13.00677056	      4.86062651	   -381.83920288	   -274.05970924	   -700.83867556	      0.00000000	      0.00000000	     -0.00000000	  -2625.32699694	      0.00000000	     -0.00000000	      0.00000000	      0.00000000	      0.00000000	      0.00000000	      0.00000000	      0.00000000	      0.00000000
      3.53000000	      0.00000000	     -0.00000000	      0.00000000	      0.00000000	      0.00000000	      0.00000000	      0.00000000	      0.00000000	      0.00000000	     -8.81590748	     -8.00104904	   -332.55990601	   -276.94716914	  -1118.08280079	      0.00000000	      0.00000000	      0.00000000	   5951.53519574	     13.41359465	      4.57714679	   -382.73178101	   -274.15988709	   -700.64142338	      0.00000000	      0.00000000	     -0.00000000	  -2585.76075850	      0.00000000	     -0.00000000	      0.00000000	      0.00000000	      0.00000000	      0.00000000	      0.00000000	      0.00000000	      0.00000000
